<?xml version="1.0" standalone="no"?>
<!DOCTYPE svg PUBLIC "-//W3C//DTD SVG 20010904//EN"
 "http://www.w3.org/TR/2001/REC-SVG-20010904/DTD/svg10.dtd">
<svg version="1.0" xmlns="http://www.w3.org/2000/svg"
 width="740.000000pt" height="740.000000pt" viewBox="0 0 740.000000 740.000000"
 preserveAspectRatio="xMidYMid meet">
<metadata>
Created by potrace 1.11, written by Peter Selinger 2001-2013
</metadata>
<g transform="translate(0.000000,740.000000) scale(0.100000,-0.100000)"
fill="#000000" stroke="none">
<path d="M3505 7274 c-174 -8 -376 -30 -497 -54 -107 -22 -155 -32 -183 -39
-136 -36 -246 -69 -312 -92 -113 -40 -170 -62 -210 -80 -24 -11 -47 -19 -52
-19 -5 0 -26 -9 -48 -20 -21 -11 -83 -41 -138 -68 -114 -56 -208 -107 -247
-134 -14 -10 -29 -18 -32 -18 -7 0 -235 -152 -264 -175 -9 -8 -45 -34 -78 -59
-163 -121 -435 -382 -565 -543 -35 -43 -66 -80 -69 -83 -8 -6 -134 -180 -167
-230 -12 -19 -26 -39 -31 -45 -4 -5 -27 -44 -51 -85 -24 -41 -57 -97 -73 -124
-25 -41 -133 -261 -158 -321 -12 -26 -44 -109 -65 -165 -24 -63 -86 -258 -90
-280 0 -3 -4 -10 -8 -17 -4 -6 -9 -24 -11 -40 -2 -15 -11 -57 -19 -93 -26
-104 -55 -276 -67 -390 -6 -58 -13 -127 -16 -155 -12 -117 -11 -388 2 -510 7
-71 16 -161 19 -200 4 -38 15 -107 26 -153 10 -45 19 -92 19 -103 0 -19 19
-96 56 -228 9 -29 18 -64 20 -76 2 -13 13 -45 24 -70 11 -26 20 -52 20 -58 0
-29 129 -328 199 -462 107 -202 130 -240 292 -476 23 -33 92 -121 114 -145 6
-6 26 -30 45 -54 124 -153 391 -412 504 -489 12 -8 28 -23 37 -33 9 -10 21
-18 28 -18 6 0 11 -3 11 -8 0 -4 18 -18 40 -32 22 -14 40 -28 40 -32 0 -5 6
-8 14 -8 8 0 16 -4 18 -8 4 -12 125 -92 137 -92 6 0 11 -4 11 -10 0 -5 7 -10
15 -10 8 0 15 -4 15 -10 0 -5 7 -10 15 -10 8 0 15 -3 15 -8 0 -4 15 -13 33
-21 17 -8 34 -17 37 -20 14 -16 279 -151 297 -151 7 0 13 -4 13 -8 0 -4 20
-14 45 -21 25 -7 45 -17 45 -22 0 -5 9 -9 20 -9 11 0 34 -9 52 -20 18 -11 40
-20 49 -20 8 0 34 -9 57 -20 22 -11 47 -20 55 -20 8 0 32 -7 53 -16 46 -19
141 -46 167 -48 9 0 17 -4 17 -8 0 -4 12 -8 26 -8 14 0 34 -5 45 -11 11 -5 35
-11 53 -13 18 -2 38 -6 45 -10 7 -5 15 -6 18 -3 3 3 16 2 29 -3 13 -5 58 -14
101 -20 43 -5 112 -15 153 -20 244 -33 665 -30 945 6 822 106 1586 470 2169
1035 224 217 429 471 576 716 63 105 220 410 217 422 0 3 7 20 16 38 9 18 19
40 20 50 2 10 14 40 25 66 12 27 20 53 17 57 -3 5 -2 10 2 12 12 5 44 99 37
109 -3 5 0 9 7 9 7 0 10 3 7 6 -3 3 3 30 13 60 11 30 17 59 14 65 -4 5 -1 9 4
9 6 0 11 9 11 21 0 11 7 45 15 74 9 29 15 57 14 61 -1 5 -1 11 1 14 1 3 3 16
6 30 2 14 11 55 19 93 9 37 12 79 9 94 -5 16 -3 24 3 20 7 -4 11 11 11 38 1
25 7 84 14 133 17 122 16 480 -2 627 -8 66 -14 130 -14 143 1 12 -3 22 -7 22
-5 0 -6 12 -3 28 2 15 -4 63 -15 107 -11 44 -17 83 -15 87 3 5 0 8 -6 8 -6 0
-9 8 -6 18 4 11 -4 50 -16 88 -12 38 -22 78 -23 89 -1 11 -10 45 -20 75 -11
30 -18 58 -17 62 1 4 -8 29 -19 55 -12 26 -23 59 -25 72 -3 13 -14 42 -26 65
-11 22 -20 43 -19 46 2 5 -20 58 -69 165 -180 391 -405 711 -720 1025 -613
612 -1438 997 -2318 1084 -155 16 -410 25 -527 20z m371 -1860 c149 -31 273
-96 386 -202 158 -149 251 -333 293 -582 19 -105 17 -139 -14 -294 -48 -235
-122 -380 -274 -534 -84 -86 -180 -144 -328 -198 l-124 -45 -102 5 c-363 21
-666 290 -770 684 -36 136 -37 354 -3 487 68 268 218 475 433 599 144 83 339
114 503 80z m1686 -894 c135 -65 248 -219 279 -378 14 -75 7 -215 -15 -285
-43 -138 -145 -261 -264 -319 -64 -31 -73 -33 -182 -33 -111 0 -118 1 -185 34
-136 67 -249 216 -276 366 -17 93 -6 247 23 326 29 77 101 183 155 229 42 34
127 78 176 91 18 4 75 7 127 5 83 -3 104 -7 162 -36z m-3377 5 c218 -77 362
-336 325 -586 -61 -422 -498 -601 -778 -320 -99 100 -162 254 -162 396 0 125
59 284 140 376 50 59 128 111 205 138 72 26 191 24 270 -4z m2372 -207 c-3 -8
-6 -5 -6 6 -1 11 2 17 5 13 3 -3 4 -12 1 -19z m-10 -40 c-3 -8 -6 -5 -6 6 -1
11 2 17 5 13 3 -3 4 -12 1 -19z m-28 -117 c-6 -18 -13 -30 -15 -28 -2 2 1 18
7 36 6 18 13 30 15 28 2 -2 -1 -18 -7 -36z m-48 -114 c-10 -9 -11 -8 -5 6 3
10 9 15 12 12 3 -3 0 -11 -7 -18z m-65 -116 c-59 -92 -154 -187 -242 -244 -63
-40 -164 -91 -164 -82 0 2 35 22 77 45 42 22 105 64 140 92 72 57 174 173 205
231 10 22 22 37 25 34 3 -3 -16 -37 -41 -76z m1235 -595 c157 -31 285 -89 393
-177 103 -85 206 -295 206 -419 l0 -30 -565 0 c-311 0 -565 -2 -565 -4 0 -2
13 -30 29 -62 51 -103 93 -254 106 -382 l6 -62 -1508 2 -1508 3 4 70 c4 89 41
234 84 335 19 44 32 82 29 85 -3 3 -268 5 -589 5 l-583 0 0 28 c0 53 30 153
69 230 88 176 252 297 471 350 246 60 553 45 771 -37 49 -19 174 -91 189 -110
3 -3 17 -16 31 -29 l26 -23 95 50 c275 144 667 210 1079 183 296 -20 531 -78
717 -177 l64 -34 56 46 c104 84 278 151 450 173 94 12 352 4 443 -14z"/>
</g>
</svg>
